<?xml version="1.0" standalone="no"?>
<!DOCTYPE svg PUBLIC "-//W3C//DTD SVG 20010904//EN"
 "http://www.w3.org/TR/2001/REC-SVG-20010904/DTD/svg10.dtd">
<svg version="1.0" xmlns="http://www.w3.org/2000/svg"
 width="3500.000000pt" height="1600.000000pt" viewBox="0 0 3500.000000 1600.000000"
 preserveAspectRatio="xMidYMid meet">

<g transform="translate(0.000000,1600.000000) scale(0.100000,-0.100000)"
fill="#000000" stroke="none">
<path d="M28730 13384 c-798 -37 -1246 -107 -1845 -290 -641 -197 -1288 -592
-1666 -1017 -183 -207 -381 -536 -530 -883 -157 -367 -229 -814 -216 -1334 9
-330 41 -536 119 -765 110 -324 266 -575 502 -810 356 -354 835 -625 1739
-986 782 -312 1185 -528 1404 -751 179 -183 243 -348 244 -624 0 -313 -76
-502 -281 -697 -187 -179 -467 -319 -800 -401 -131 -32 -358 -70 -549 -93
-207 -25 -820 -24 -1076 0 -491 49 -940 134 -1322 253 -193 60 -325 111 -520
200 -89 42 -175 76 -190 77 -34 3 -28 20 -228 -618 -312 -995 -449 -1455 -438
-1466 14 -13 410 -128 636 -184 486 -121 1126 -244 1507 -289 288 -35 462 -41
1145 -41 724 0 843 5 1195 51 966 125 1767 386 2363 771 454 293 882 762 1110
1218 220 442 317 907 318 1526 0 499 -28 694 -143 1004 -264 715 -771 1193
-1751 1651 -207 97 -305 139 -666 285 -368 150 -538 224 -716 314 -343 174
-543 331 -645 505 -59 99 -71 154 -77 330 -9 250 24 370 142 518 205 256 560
396 1179 463 248 27 734 36 983 20 582 -40 1171 -158 1600 -321 276 -106 343
-130 356 -130 14 0 45 92 287 845 77 242 195 602 261 801 65 198 119 374 119
392 0 22 -7 36 -25 48 -100 65 -691 228 -1050 289 -370 63 -729 103 -1135 125
-174 10 -1197 21 -1340 14z"/>
<path d="M4675 13208 c-2 -7 -15 -69 -29 -138 -65 -317 -684 -3231 -1000
-4710 -102 -476 -275 -1290 -386 -1810 -111 -520 -313 -1469 -450 -2110 -322
-1505 -338 -1586 -324 -1600 21 -21 618 -29 1629 -22 l990 7 23 115 c821 4126
1412 7054 1427 7069 7 6 24 -44 52 -144 43 -155 119 -412 288 -965 90 -294
254 -836 365 -1205 294 -977 683 -2264 969 -3206 137 -453 290 -959 340 -1124
50 -165 108 -354 129 -420 l38 -120 1729 -3 c951 -1 1732 1 1736 5 9 10 59
243 589 2753 83 393 175 830 205 970 30 140 147 692 260 1225 448 2110 824
3883 974 4600 152 725 167 802 159 811 -16 15 -468 24 -1500 30 -615 4 -1118
5 -1118 2 0 -4 -348 -1728 -694 -3438 -91 -448 -253 -1251 -361 -1785 -312
-1542 -401 -1945 -425 -1919 -15 17 -87 249 -275 889 -70 237 -181 612 -246
835 -66 223 -165 556 -219 740 -54 184 -169 574 -255 865 -422 1428 -791 2680
-926 3140 -83 281 -161 547 -175 593 l-25 82 -1745 0 c-1387 0 -1745 -3 -1749
-12z"/>
<path d="M15415 13198 c-6 -26 -431 -2075 -530 -2553 -35 -170 -109 -528 -165
-795 -56 -267 -116 -559 -135 -650 -19 -91 -92 -446 -164 -790 -71 -344 -254
-1223 -406 -1955 -152 -731 -381 -1837 -510 -2457 -129 -619 -235 -1129 -235
-1131 0 -35 425 -46 1798 -46 545 -1 992 1 992 3 0 1 38 187 86 412 47 225
112 537 144 694 32 157 93 447 134 645 213 1024 556 2684 556 2690 0 11 3107
-2 3179 -13 34 -6 67 -14 72 -19 13 -13 -123 -694 -610 -3048 -66 -319 -153
-733 -192 -920 -40 -187 -73 -355 -73 -374 -1 -30 3 -36 29 -44 68 -20 1103
-31 1910 -18 435 6 804 14 820 17 l31 6 33 166 c36 184 243 1184 521 2512 195
930 450 2157 775 3730 475 2296 559 2700 659 3177 58 277 117 553 131 614 14
62 25 115 25 120 0 23 -102 31 -530 40 -499 11 -2250 2 -2264 -11 -4 -4 -33
-129 -63 -277 -93 -464 -246 -1210 -413 -2018 -89 -429 -200 -969 -247 -1200
-47 -231 -87 -422 -90 -425 -12 -13 -458 -19 -1784 -26 -801 -4 -1463 -5
-1472 -1 -21 8 -34 -63 328 1702 216 1050 392 1901 431 2080 18 88 34 166 34
173 0 9 -287 12 -1400 12 l-1400 0 -5 -22z"/>
</g>
</svg>
